<?xml version="1.0" encoding="iso-8859-1"?>
<!-- Uploaded to: SVG Repo, www.svgrepo.com, Generator: SVG Repo Mixer Tools -->
<svg height="800px" width="800px" version="1.1" id="Layer_1" xmlns="http://www.w3.org/2000/svg" xmlns:xlink="http://www.w3.org/1999/xlink" 
	 viewBox="0 0 512 512" xml:space="preserve">
<path style="fill:#804426;" d="M411.826,272.696h-50.087c-9.217,0-16.696-7.473-16.696-16.696s7.479-16.696,16.696-16.696h50.087
	c9.206,0,16.696-7.49,16.696-16.696v-33.391c0-9.223,7.479-16.696,16.696-16.696c9.217,0,16.696,7.473,16.696,16.696v33.391
	C461.913,250.228,439.445,272.696,411.826,272.696z"/>
<path style="fill:#99522E;" d="M161.391,339.478H128c-27.619,0-50.087-22.468-50.087-50.087c0-9.223,7.479-16.696,16.696-16.696
	s16.696,7.473,16.696,16.696c0,9.206,7.49,16.696,16.696,16.696h33.391c9.217,0,16.696,7.473,16.696,16.696
	S170.608,339.478,161.391,339.478z"/>
<path style="fill:#A6673A;" d="M378.435,189.217V256c0,46.08-37.398,83.478-83.478,83.478c-9.239,0-16.696,7.457-16.696,16.696
	v33.391c0,9.238-7.456,16.696-16.696,16.696H161.391c-9.239,0-16.696-7.457-16.696-16.696v-33.391
	c0-64.445,52.424-116.87,116.87-116.87c9.239,0,16.696-7.457,16.696-16.696v-33.391c0-9.238,7.456-16.696,16.696-16.696h66.783
	C370.978,172.522,378.435,179.979,378.435,189.217z"/>
<path style="fill:#99522E;" d="M378.435,189.217V256c0,46.08-37.398,83.478-83.478,83.478c-9.239,0-16.696,7.457-16.696,16.696
	v33.391c0,9.238-7.456,16.696-16.696,16.696V239.304c9.239,0,16.696-7.457,16.696-16.696v-33.391
	c0-9.238,7.456-16.696,16.696-16.696h66.783C370.978,172.522,378.435,179.979,378.435,189.217z"/>
<path style="fill:#88CC2A;" d="M438.694,72.666C422.672,32.952,379.019,5.565,328.348,5.565s-94.324,27.386-110.346,67.101
	c-39.632-3.823-73.306,27.41-73.306,66.464c0,36.826,29.956,66.783,66.783,66.783h233.739c36.826,0,66.783-29.956,66.783-66.783
	C512,100.087,478.338,68.842,438.694,72.666z"/>
<g>
	<path style="fill:#7FB335;" d="M438.694,72.666C422.672,32.952,379.019,5.565,328.348,5.565c-24.744,0-47.785,6.567-66.783,17.875
		v182.472h183.652c36.826,0,66.783-29.956,66.783-66.783C512,100.087,478.337,68.841,438.694,72.666z"/>
	<path style="fill:#7FB335;" d="M111.304,289.391H50.087C22.468,289.391,0,266.923,0,239.304c0-19.386,11.717-36.739,29.163-44.962
		c2.055-8.755,6.457-16.81,12.914-23.424c9.511-9.734,22.227-15.092,35.837-15.092c22.565,0,41.685,14.995,47.934,35.544
		c20.543,6.244,35.544,25.37,35.544,47.934C161.391,266.923,138.923,289.391,111.304,289.391z"/>
</g>
<path style="fill:#736056;" d="M361.739,506.435H161.391c-64.445,0-116.87-52.429-116.87-116.87c0-9.223,7.479-16.696,16.696-16.696
	h400.696c9.217,0,16.696,7.473,16.696,16.696C478.609,454.006,426.184,506.435,361.739,506.435z"/>
<path style="fill:#A6673A;" d="M361.739,406.261c-9.217,0-16.696-7.473-16.696-16.696v-33.391c0-9.223,7.479-16.696,16.696-16.696
	c9.217,0,16.696,7.473,16.696,16.696v33.391C378.435,398.788,370.956,406.261,361.739,406.261z"/>
<path style="fill:#665247;" d="M461.913,372.87H261.565v133.565h100.174c64.445,0,116.87-52.429,116.87-116.87
	C478.609,380.342,471.13,372.87,461.913,372.87z"/>
</svg>